HIERARCHY
ROOT Hips
{
	OFFSET 0.000000 83.214638 0.000000
	CHANNELS 6 Xposition Yposition Zposition Xrotation Yrotation Zrotation
	JOINT Pelvis
	{
		OFFSET 0.000000 0.000000 0.000000
		CHANNELS 3 Xrotation Yrotation Zrotation
		JOINT LeftUpLeg
		{
			OFFSET 8.479700 -4.795502 -0.379100
			CHANNELS 3 Xrotation Yrotation Zrotation
			JOINT LeftLeg
			{
				OFFSET 0.024144 -32.555107 0.112900
				CHANNELS 3 Xrotation Yrotation Zrotation
				JOINT LeftFoot
				{
					OFFSET -0.024144 -32.638630 -3.012600
					CHANNELS 3 Xrotation Yrotation Zrotation
					JOINT LeftToeBase
					{
						OFFSET 0.970200 -13.225400 11.864200
						CHANNELS 3 Xrotation Yrotation Zrotation
						End Site
						{
							OFFSET 0.000000 12.319262 0.000000
						}
					}
					JOINT LFootTongue
					{
						OFFSET 1.142400 -1.059800 6.665200
						CHANNELS 3 Xrotation Yrotation Zrotation
						End Site
						{
							OFFSET 0.000000 12.319262 0.000000
						}
					}
				}
				JOINT LeftPantLeg
				{
					OFFSET 0.918482 -16.533964 -2.284700
					CHANNELS 3 Xrotation Yrotation Zrotation
					End Site
					{
						OFFSET 0.350399 24.744368 0.000000
					}
				}
			}
		}
		JOINT RightUpLeg
		{
			OFFSET -8.479700 -4.795502 -0.379100
			CHANNELS 3 Xrotation Yrotation Zrotation
			JOINT RightLeg
			{
				OFFSET -0.023144 -32.555092 0.112900
				CHANNELS 3 Xrotation Yrotation Zrotation
				JOINT RightFoot
				{
					OFFSET 0.023144 -32.638641 -3.012700
					CHANNELS 3 Xrotation Yrotation Zrotation
					JOINT RightToeBase
					{
						OFFSET -0.970200 -13.225400 11.864200
						CHANNELS 3 Xrotation Yrotation Zrotation
						End Site
						{
							OFFSET 0.000000 12.319244 0.000000
						}
					}
					JOINT RFootTongue
					{
						OFFSET -1.142200 -1.059800 6.665200
						CHANNELS 3 Xrotation Yrotation Zrotation
						End Site
						{
							OFFSET 0.000000 12.319243 0.000000
						}
					}
				}
				JOINT RightPantLeg
				{
					OFFSET -0.919482 -16.533978 -2.284800
					CHANNELS 3 Xrotation Yrotation Zrotation
					End Site
					{
						OFFSET -0.350400 24.744419 0.000000
					}
				}
			}
		}
	}
	JOINT Spine
	{
		OFFSET 0.000000 7.722000 1.166200
		CHANNELS 3 Xrotation Yrotation Zrotation
		JOINT Spine1
		{
			OFFSET 0.000000 12.024101 0.248800
			CHANNELS 3 Xrotation Yrotation Zrotation
			JOINT Spine2
			{
				OFFSET 0.000000 11.502998 -0.491200
				CHANNELS 3 Xrotation Yrotation Zrotation
				JOINT Neck
				{
					OFFSET 0.000000 18.430702 -3.123100
					CHANNELS 3 Xrotation Yrotation Zrotation
					JOINT Head
					{
						OFFSET 0.000000 9.051102 1.034000
						CHANNELS 3 Xrotation Yrotation Zrotation
						JOINT HairB
						{
							OFFSET 0.208400 24.786102 24.822300
							CHANNELS 3 Xrotation Yrotation Zrotation
							End Site
							{
								OFFSET 0.000000 32.263779 0.000000
							}
						}
						JOINT HairA
						{
							OFFSET -7.081100 24.428299 23.196600
							CHANNELS 3 Xrotation Yrotation Zrotation
							End Site
							{
								OFFSET 0.000000 32.263779 0.000000
							}
						}
						JOINT Hat
						{
							OFFSET 16.728800 15.048294 -15.439601
							CHANNELS 3 Xrotation Yrotation Zrotation
							End Site
							{
								OFFSET 0.000000 32.263779 0.000000
							}
						}
					}
				}
				JOINT LeftShoulder
				{
					OFFSET 6.197800 13.665199 -4.064700
					CHANNELS 3 Xrotation Yrotation Zrotation
					JOINT LeftArm
					{
						OFFSET 7.778100 -0.187103 -1.709300
						CHANNELS 3 Xrotation Yrotation Zrotation
						JOINT LeftForeArm
						{
							OFFSET 22.049376 0.000000 0.000000
							CHANNELS 3 Xrotation Yrotation Zrotation
							JOINT LeftHand
							{
								OFFSET 23.009392 0.000000 0.000000
								CHANNELS 3 Xrotation Yrotation Zrotation
								JOINT LeftHandThumb1
								{
									OFFSET 3.507191 -2.063065 3.133727
									CHANNELS 3 Xrotation Yrotation Zrotation
									JOINT LeftHandThumb2
									{
										OFFSET 3.101337 -1.790558 1.790558
										CHANNELS 3 Xrotation Yrotation Zrotation
										JOINT LeftHandThumb3
										{
											OFFSET 3.058640 -1.765907 1.765906
											CHANNELS 3 Xrotation Yrotation Zrotation
											End Site
											{
												OFFSET -0.415260 3.926476 -0.049563
											}
										}
									}
								}
								JOINT LeftHandIndex1
								{
									OFFSET 11.334419 -0.901459 3.706815
									CHANNELS 3 Xrotation Yrotation Zrotation
									JOINT LeftHandIndex2
									{
										OFFSET 3.283112 0.000000 0.000000
										CHANNELS 3 Xrotation Yrotation Zrotation
										JOINT LeftHandIndex3
										{
											OFFSET 3.323853 0.000000 0.000000
											CHANNELS 3 Xrotation Yrotation Zrotation
											End Site
											{
												OFFSET -1.135597 3.097809 0.402452
											}
										}
									}
								}
								JOINT LeftHandMiddle1
								{
									OFFSET 11.335861 0.000000 0.000000
									CHANNELS 3 Xrotation Yrotation Zrotation
									JOINT LeftHandMiddle2
									{
										OFFSET 3.410492 0.000000 0.000000
										CHANNELS 3 Xrotation Yrotation Zrotation
										JOINT LeftHandMiddle3
										{
											OFFSET 3.312172 0.000000 0.000000
											CHANNELS 3 Xrotation Yrotation Zrotation
											End Site
											{
												OFFSET -1.150200 3.080154 0.400270
											}
										}
									}
								}
								JOINT LeftHandRing1
								{
									OFFSET 11.514786 -0.013176 -3.003090
									CHANNELS 3 Xrotation Yrotation Zrotation
									JOINT LeftHandRing2
									{
										OFFSET 3.053307 0.000000 0.000000
										CHANNELS 3 Xrotation Yrotation Zrotation
										JOINT LeftHandRing3
										{
											OFFSET 3.295807 0.000000 0.000000
											CHANNELS 3 Xrotation Yrotation Zrotation
											End Site
											{
												OFFSET -1.281006 3.013344 0.375733
											}
										}
									}
								}
								JOINT LeftHandPinky1
								{
									OFFSET 10.518692 -0.960396 -5.730441
									CHANNELS 3 Xrotation Yrotation Zrotation
									JOINT LeftHandPinky2
									{
										OFFSET 2.861649 0.000000 0.000000
										CHANNELS 3 Xrotation Yrotation Zrotation
										JOINT LeftHandPinky3
										{
											OFFSET 2.863380 0.000000 0.000000
											CHANNELS 3 Xrotation Yrotation Zrotation
											End Site
											{
												OFFSET -0.843597 2.711159 0.369971
											}
										}
									}
								}
							}
							JOINT LSleeve
							{
								OFFSET 6.676277 -0.344902 -1.011730
								CHANNELS 3 Xrotation Yrotation Zrotation
								End Site
								{
									OFFSET 0.000000 14.885353 0.000000
								}
							}
						}
					}
				}
				JOINT RightShoulder
				{
					OFFSET -6.197800 13.665199 -4.064700
					CHANNELS 3 Xrotation Yrotation Zrotation
					JOINT RightArm
					{
						OFFSET -7.778100 -0.187103 -1.709300
						CHANNELS 3 Xrotation Yrotation Zrotation
						JOINT RightForeArm
						{
							OFFSET -22.049376 0.000000 0.000000
							CHANNELS 3 Xrotation Yrotation Zrotation
							JOINT RightHand
							{
								OFFSET -23.009392 0.000000 0.000000
								CHANNELS 3 Xrotation Yrotation Zrotation
								JOINT RightHandThumb1
								{
									OFFSET -3.507191 -2.063065 3.133727
									CHANNELS 3 Xrotation Yrotation Zrotation
									JOINT RightHandThumb2
									{
										OFFSET -3.101337 -1.790558 1.790558
										CHANNELS 3 Xrotation Yrotation Zrotation
										JOINT RightHandThumb3
										{
											OFFSET -3.058640 -1.765907 1.765906
											CHANNELS 3 Xrotation Yrotation Zrotation
											End Site
											{
												OFFSET 0.415260 3.926476 -0.049563
											}
										}
									}
								}
								JOINT RightHandIndex1
								{
									OFFSET -11.334419 -0.901459 3.706815
									CHANNELS 3 Xrotation Yrotation Zrotation
									JOINT RightHandIndex2
									{
										OFFSET -3.283112 0.000000 0.000000
										CHANNELS 3 Xrotation Yrotation Zrotation
										JOINT RightHandIndex3
										{
											OFFSET -3.323853 0.000000 0.000000
											CHANNELS 3 Xrotation Yrotation Zrotation
											End Site
											{
												OFFSET 1.135597 3.097809 0.402452
											}
										}
									}
								}
								JOINT RightHandMiddle1
								{
									OFFSET -11.335861 0.000000 0.000000
									CHANNELS 3 Xrotation Yrotation Zrotation
									JOINT RightHandMiddle2
									{
										OFFSET -3.410492 0.000000 0.000000
										CHANNELS 3 Xrotation Yrotation Zrotation
										JOINT RightHandMiddle3
										{
											OFFSET -3.312172 0.000000 0.000000
											CHANNELS 3 Xrotation Yrotation Zrotation
											End Site
											{
												OFFSET 1.150200 3.080154 0.400270
											}
										}
									}
								}
								JOINT RightHandRing1
								{
									OFFSET -11.514786 -0.013176 -3.003090
									CHANNELS 3 Xrotation Yrotation Zrotation
									JOINT RightHandRing2
									{
										OFFSET -3.053307 0.000000 0.000000
										CHANNELS 3 Xrotation Yrotation Zrotation
										JOINT RightHandRing3
										{
											OFFSET -3.295807 0.000000 0.000000
											CHANNELS 3 Xrotation Yrotation Zrotation
											End Site
											{
												OFFSET 1.281006 3.013344 0.375733
											}
										}
									}
								}
								JOINT RightHandPinky1
								{
									OFFSET -10.518692 -0.960396 -5.730441
									CHANNELS 3 Xrotation Yrotation Zrotation
									JOINT RightHandPinky2
									{
										OFFSET -2.861649 0.000000 0.000000
										CHANNELS 3 Xrotation Yrotation Zrotation
										JOINT RightHandPinky3
										{
											OFFSET -2.863380 0.000000 0.000000
											CHANNELS 3 Xrotation Yrotation Zrotation
											End Site
											{
												OFFSET 0.843597 2.711159 0.369971
											}
										}
									}
								}
							}
							JOINT RSleeve
							{
								OFFSET -6.676277 -0.344902 -1.011730
								CHANNELS 3 Xrotation Yrotation Zrotation
								End Site
								{
									OFFSET 0.000000 14.885353 0.000000
								}
							}
						}
					}
				}
				JOINT Backpack
				{
					OFFSET 0.000000 -2.471497 36.677502
					CHANNELS 3 Xrotation Yrotation Zrotation
					End Site
					{
						OFFSET 0.000000 20.427315 0.000000
					}
				}
				JOINT Hood
				{
					OFFSET 0.000000 18.754097 -10.431000
					CHANNELS 3 Xrotation Yrotation Zrotation
					JOINT Hood1
					{
						OFFSET 0.000000 -5.011002 -7.685901
						CHANNELS 3 Xrotation Yrotation Zrotation
						End Site
						{
							OFFSET 0.000000 9.175140 0.000000
						}
					}
				}
				JOINT LHoodieString
				{
					OFFSET 5.250500 16.397697 3.089900
					CHANNELS 3 Xrotation Yrotation Zrotation
					JOINT LHoodieString1
					{
						OFFSET 0.257700 -6.364304 3.694600
						CHANNELS 3 Xrotation Yrotation Zrotation
						JOINT LHoodieString2
						{
							OFFSET 0.000000 -9.643799 2.679100
							CHANNELS 3 Xrotation Yrotation Zrotation
							End Site
							{
								OFFSET 0.000000 10.009018 0.000000
							}
						}
					}
				}
				JOINT RHoodieString
				{
					OFFSET -5.250500 16.397697 3.089900
					CHANNELS 3 Xrotation Yrotation Zrotation
					JOINT RHoodieString1
					{
						OFFSET -0.257700 -6.364304 3.694600
						CHANNELS 3 Xrotation Yrotation Zrotation
						JOINT RHoodieString2
						{
							OFFSET 0.000000 -9.643799 2.679100
							CHANNELS 3 Xrotation Yrotation Zrotation
							End Site
							{
								OFFSET 0.000000 10.009018 0.000000
							}
						}
					}
				}
			}
			JOINT LBackpack_Strap
			{
				OFFSET 15.223200 -7.719803 -6.610900
				CHANNELS 3 Xrotation Yrotation Zrotation
				End Site
				{
					OFFSET 0.000000 16.040596 0.000000
				}
			}
			JOINT RBackpack_Strap
			{
				OFFSET -15.223000 -7.719803 -6.610900
				CHANNELS 3 Xrotation Yrotation Zrotation
				End Site
				{
					OFFSET 0.000000 16.040596 0.000000
				}
			}
		}
	}
	JOINT BoyFacialAnim_Joint
	{
		OFFSET 1.000000 -82.208099 -1.550900
		CHANNELS 3 Xrotation Yrotation Zrotation
		End Site
		{
			OFFSET 0.000000 30.012791 0.000000
		}
	}
}
MOTION
Frames: 5
Frame Time: 0.033333
-0.075644 74.951263 -0.114285 -11.492834 -32.276110 -3.533508 -0.000000 0.000001 0.000000 -30.695567 29.257030 15.453470 74.817865 -9.917798 2.941500 16.241440 4.433667 15.779815 -0.000003 -0.000001 0.000001 -0.000003 -0.000001 0.000002 0.000001 -0.000000 -0.000000 -25.420870 -2.259725 7.097515 51.251441 -5.431494 -10.310986 -16.386204 -0.243695 1.241430 -0.000000 0.000002 -0.000000 -0.000000 0.000002 -0.000000 0.000001 -0.000002 0.000001 13.662438 -4.523309 6.466970 2.026185 -2.342329 0.827093 2.015420 -2.337406 0.867627 13.152132 13.393332 -6.449617 16.976311 9.989555 4.216579 -0.000003 0.000001 -0.000000 -0.000003 0.000001 -0.000000 -0.000003 0.000001 -0.000000 0.252788 -11.739859 -12.807359 -52.262760 -16.401425 -40.618052 -0.000040 -60.457221 -0.000035 -132.812277 -1.600634 24.363736 1.567994 0.456389 2.719344 19.473194 -1.474921 7.636922 -0.000001 -0.000002 0.000001 -1.882822 2.129447 -39.817021 2.947090 5.081732 -60.200516 -0.000001 0.000000 -0.000002 0.405909 5.507052 -52.453148 3.387147 5.308627 -65.057456 0.000001 -0.000001 -0.000000 -0.074374 5.736800 -61.061434 4.422092 5.674483 -75.840365 -0.000002 0.000001 -0.000002 2.216814 7.072463 -64.435431 4.422617 5.674629 -75.845788 -0.000003 -0.000003 0.000001 -0.000002 -0.000001 0.000001 0.505178 5.257271 11.859111 -34.604153 63.980622 57.403430 0.001243 97.079774 -0.001197 -51.294591 -27.738988 -28.919677 8.377148 -4.904137 11.021986 21.620218 -18.183895 -18.379204 0.000002 0.000000 0.000001 -1.101403 1.407138 15.159511 1.422359 -3.352188 45.974085 -0.000002 -0.000001 0.000007 3.413061 -7.186261 51.650242 6.296814 -4.359582 110.634680 0.000002 0.000001 -0.000002 -3.349032 -2.600434 57.010561 5.440871 -4.590895 99.698181 0.000001 0.000001 0.000002 -3.996438 -3.303938 64.593850 4.058843 -4.618679 82.610516 0.000000 -0.000001 0.000002 0.000002 0.000002 -0.000002 -0.000001 -0.000003 -0.000001 -0.000001 -0.000003 -0.000001 -0.000001 -0.000003 -0.000001 -0.000001 -0.000003 -0.000001 -0.000001 -0.000003 0.000000 -0.000001 -0.000001 0.000000 -0.000001 -0.000003 -0.000001 -0.000001 -0.000003 0.000000 -0.000001 -0.000001 0.000000 0.000001 0.000000 -0.000001 0.000001 0.000000 -0.000001 -0.000000 0.000001 0.000000 
-0.210943 75.725784 1.896146 -11.573512 -32.605766 -3.273550 0.000001 -0.000000 0.000000 -34.683359 27.823220 17.333903 70.819178 -9.931379 2.757566 13.207267 0.503617 13.868574 -0.000003 0.000000 -0.000000 -0.000003 0.000000 -0.000000 -0.000001 -0.000001 -0.000000 -22.857974 -2.424370 5.627229 49.809298 -4.473020 -10.308033 -17.329305 -0.251819 1.371373 0.000000 -0.000003 -0.000000 0.000000 -0.000003 -0.000000 0.000001 0.000000 0.000001 13.373298 -4.271911 6.051756 2.687040 -2.240493 0.756196 2.677150 -2.237705 0.796448 12.529163 13.131449 -6.106026 15.910956 10.506659 4.506708 0.000002 -0.000000 -0.000000 0.000002 -0.000000 -0.000000 0.000002 -0.000000 -0.000000 0.328763 -11.329818 -12.862344 -53.721955 -17.967625 -41.168651 0.000037 -59.783136 0.000026 -132.358575 -1.548431 24.641755 1.567995 0.456381 2.719344 19.473189 -1.474909 7.636919 -0.000001 0.000004 -0.000002 -1.882815 2.129424 -39.817008 2.947097 5.081747 -60.200509 0.000001 0.000000 -0.000003 0.405919 5.507056 -52.453172 3.387140 5.308616 -65.057463 0.000007 0.000001 -0.000001 -0.074381 5.736773 -61.061420 4.422090 5.674479 -75.840412 -0.000006 -0.000001 -0.000002 2.216807 7.072450 -64.435417 4.422629 5.674641 -75.845761 0.000000 0.000000 0.000002 -0.000002 0.000000 0.000001 -1.263931 4.114832 11.309379 -35.568603 63.806377 59.758732 0.001605 97.074439 -0.001589 -51.353033 -27.262020 -28.740575 8.377138 -4.904127 11.022003 21.620212 -18.183881 -18.379206 0.000002 -0.000001 0.000001 -1.101408 1.407136 15.159511 1.422364 -3.352194 45.974096 -0.000000 -0.000001 0.000005 3.413064 -7.186266 51.650253 6.296807 -4.359581 110.634660 0.000001 0.000001 -0.000002 -3.349051 -2.600458 57.010592 5.440888 -4.590911 99.698140 0.000001 0.000002 0.000004 -3.996445 -3.303940 64.593864 4.058858 -4.618682 82.610537 -0.000001 -0.000001 0.000005 -0.000000 0.000000 -0.000003 0.000000 0.000003 0.000000 0.000000 0.000003 0.000000 0.000000 0.000003 0.000000 0.000000 0.000003 0.000000 0.000000 0.000003 0.000000 0.000000 -0.000001 -0.000000 0.000000 0.000003 0.000000 0.000000 0.000003 0.000000 0.000000 -0.000001 -0.000000 -0.000000 -0.000002 -0.000000 -0.000000 -0.000002 -0.000000 0.000001 -0.000000 0.000000 
-0.347509 76.506363 3.884650 -11.529820 -32.881842 -2.998214 -0.000001 -0.000001 -0.000000 -36.609985 26.866180 18.166191 63.776263 -9.946673 2.464576 10.722956 -2.159098 11.299888 0.000000 -0.000001 0.000001 0.000000 -0.000001 0.000001 -0.000002 0.000001 -0.000000 -20.418395 -2.626290 4.137515 48.120319 -3.484745 -10.262730 -17.753914 -0.322766 1.811113 0.000000 0.000000 -0.000000 0.000000 0.000000 -0.000000 -0.000000 -0.000002 0.000002 13.066719 -4.035252 5.576065 3.403299 -2.132931 0.683038 3.394641 -2.131509 0.723569 11.863926 12.848913 -5.738050 14.763797 11.064691 4.824105 -0.000001 0.000001 -0.000001 -0.000001 0.000001 -0.000001 -0.000001 0.000001 -0.000001 0.411252 -10.889844 -12.921689 -55.333541 -19.553472 -41.698100 -0.000004 -59.046794 -0.000012 -131.883972 -1.442495 24.820790 1.567993 0.456387 2.719341 19.473182 -1.474918 7.636918 0.000000 -0.000001 0.000001 -1.882821 2.129422 -39.817018 2.947098 5.081741 -60.200516 0.000002 0.000001 -0.000002 0.405919 5.507059 -52.453162 3.387151 5.308618 -65.057456 0.000003 -0.000002 0.000002 -0.074377 5.736785 -61.061420 4.422087 5.674487 -75.840378 0.000003 -0.000002 -0.000001 2.216802 7.072448 -64.435417 4.422622 5.674626 -75.845788 0.000003 0.000001 -0.000002 0.000003 0.000000 0.000003 -3.176327 2.924888 10.657405 -36.686326 63.681842 62.401735 -0.000018 96.903807 -0.000023 -51.252179 -26.575735 -28.381145 8.377120 -4.904145 11.022021 21.620218 -18.183886 -18.379235 -0.000001 0.000001 -0.000000 -1.101428 1.407132 15.159513 1.422372 -3.352185 45.974092 -0.000001 -0.000001 0.000003 3.413055 -7.186275 51.650246 6.296820 -4.359580 110.634680 0.000000 0.000000 0.000001 -3.349047 -2.600447 57.010575 5.440861 -4.590891 99.698168 -0.000000 0.000001 0.000001 -3.996461 -3.303920 64.593857 4.058851 -4.618677 82.610510 0.000000 -0.000001 0.000000 0.000000 0.000001 -0.000000 0.000001 0.000000 -0.000000 0.000001 0.000000 -0.000000 0.000001 0.000000 -0.000000 0.000001 0.000000 -0.000000 0.000001 0.000000 -0.000000 0.000000 0.000002 -0.000000 0.000001 0.000000 -0.000000 0.000001 0.000000 -0.000000 0.000000 0.000002 -0.000000 -0.000000 0.000002 -0.000000 -0.000000 0.000002 -0.000000 -0.000001 -0.000001 -0.000000 
-0.499372 77.258858 5.864984 -11.381267 -33.102440 -2.785987 0.000001 0.000002 0.000000 -37.095058 26.118539 18.427470 54.767049 -9.947809 2.087264 8.631766 -3.509458 8.344343 0.000000 -0.000001 -0.000001 0.000000 -0.000001 -0.000000 0.000001 0.000001 -0.000000 -18.055639 -2.859528 2.796432 46.214460 -2.636631 -10.184171 -17.865494 -0.396196 2.364646 -0.000000 -0.000002 0.000000 -0.000000 -0.000002 0.000000 -0.000000 -0.000001 0.000001 12.750586 -3.812828 5.056827 4.162972 -2.018967 0.620492 4.155523 -2.014737 0.660759 11.164138 12.548460 -5.349707 13.546074 11.658214 5.166695 -0.000001 0.000002 -0.000002 -0.000001 0.000002 -0.000002 -0.000001 0.000002 -0.000002 0.499577 -10.424569 -12.984850 -57.023156 -21.098267 -42.210931 0.000005 -58.701391 0.000002 -131.331629 -1.488048 25.158008 1.567996 0.456394 2.719346 19.473190 -1.474914 7.636918 -0.000002 0.000006 0.000000 -1.882814 2.129438 -39.817018 2.947094 5.081742 -60.200522 -0.000004 0.000000 -0.000002 0.405907 5.507049 -52.453165 3.387155 5.308635 -65.057449 0.000005 0.000001 -0.000001 -0.074379 5.736792 -61.061420 4.422096 5.674482 -75.840385 0.000000 0.000001 0.000003 2.216810 7.072462 -64.435438 4.422642 5.674634 -75.845754 -0.000002 0.000003 -0.000007 0.000002 -0.000001 0.000000 -5.216537 1.710601 9.899581 -37.691508 63.464533 65.014351 0.001874 96.952322 -0.001889 -51.147042 -25.803746 -28.050474 8.377128 -4.904139 11.022008 21.620221 -18.183902 -18.379226 0.000003 0.000001 0.000001 -1.101412 1.407128 15.159535 1.422359 -3.352188 45.974085 -0.000001 -0.000002 0.000002 3.413044 -7.186278 51.650246 6.296815 -4.359586 110.634660 0.000001 0.000001 -0.000002 -3.349060 -2.600435 57.010585 5.440866 -4.590916 99.698161 -0.000001 0.000000 -0.000001 -3.996443 -3.303931 64.593857 4.058850 -4.618679 82.610523 -0.000001 -0.000000 -0.000002 -0.000001 -0.000001 0.000001 -0.000000 0.000002 0.000000 -0.000000 0.000002 0.000000 -0.000000 0.000002 0.000000 -0.000000 0.000002 0.000000 -0.000000 0.000002 -0.000000 -0.000001 0.000000 0.000000 -0.000000 0.000002 0.000000 -0.000000 0.000002 -0.000000 -0.000001 0.000000 0.000000 -0.000000 -0.000005 0.000001 -0.000000 -0.000005 0.000001 0.000001 0.000002 0.000000 
-0.645710 77.936638 7.902153 -11.176697 -33.415440 -2.602942 -0.000001 0.000004 0.000000 -36.198900 25.584193 18.126260 45.015899 -9.929051 1.663751 6.382853 -3.384246 5.504685 0.000001 0.000001 -0.000001 0.000001 0.000001 -0.000000 0.000000 -0.000001 -0.000000 -15.840971 -2.988084 1.584145 44.390321 -1.888370 -10.098421 -17.917552 -0.436666 2.765975 0.000000 -0.000001 0.000000 0.000000 -0.000001 0.000000 -0.000001 0.000004 -0.000000 12.432957 -3.584044 4.531874 4.955235 -1.856801 0.554798 4.947460 -1.852032 0.582464 10.437312 12.232876 -4.944985 12.269095 12.281641 5.532339 0.000001 -0.000000 0.000002 0.000001 -0.000000 0.000002 0.000001 -0.000000 0.000002 0.593030 -9.938681 -13.051249 -58.692014 -22.461407 -42.624110 0.000009 -58.808291 -0.000001 -130.813914 -1.659547 25.639384 1.567995 0.456395 2.719341 19.473190 -1.474924 7.636928 0.000000 -0.000002 -0.000000 -1.882822 2.129427 -39.816994 2.947081 5.081751 -60.200536 -0.000002 -0.000002 -0.000002 0.405914 5.507036 -52.453151 3.387145 5.308620 -65.057470 -0.000000 -0.000000 0.000002 -0.074371 5.736792 -61.061427 4.422088 5.674479 -75.840392 -0.000003 0.000000 -0.000000 2.216818 7.072461 -64.435431 4.422640 5.674625 -75.845795 0.000002 -0.000002 -0.000002 0.000000 0.000002 -0.000001 -7.368943 0.495004 9.034941 -38.709735 63.251363 67.739692 -0.000374 97.170567 0.000366 -51.009338 -25.046985 -27.797260 8.377130 -4.904140 11.022016 21.620219 -18.183881 -18.379223 -0.000001 0.000001 0.000001 -1.101403 1.407134 15.159516 1.422372 -3.352171 45.974078 -0.000000 -0.000000 0.000002 3.413060 -7.186270 51.650246 6.296831 -4.359601 110.634673 0.000000 0.000000 -0.000000 -3.349040 -2.600429 57.010564 5.440866 -4.590906 99.698154 -0.000000 0.000000 0.000005 -3.996430 -3.303948 64.593850 4.058874 -4.618669 82.610537 -0.000000 -0.000001 -0.000005 0.000001 -0.000002 0.000001 0.000001 0.000001 0.000000 0.000001 0.000001 0.000000 0.000001 0.000001 0.000000 0.000001 0.000001 0.000000 0.000001 0.000001 0.000000 -0.000000 0.000001 0.000000 0.000001 0.000001 0.000000 0.000001 0.000001 0.000000 -0.000000 0.000001 0.000000 -0.000000 0.000001 -0.000002 -0.000000 0.000001 -0.000002 -0.000001 0.000004 0.000000 
